<svg xmlns="http://www.w3.org/2000/svg" width="360" viewBox="0 0 270 270" height="360" version="1.0">
  <defs>
    <clipPath id="a">
      <path d="M0 .02h270v160.507H0Zm0 0" />
    </clipPath>
  </defs>
  <path fill="#fff" d="M-27-27h324v324H-27z" />
  <path fill="#fff" d="M-27-27h324v324H-27z" />
  <path fill="#fff" d="M-27-27h324v324H-27z" />
  <g clip-path="url(#a)">
    <path fill="#d71718" d="M0 .02h269.578v160.734H0Zm0 0" />
  </g>
  <path fill="#f5e829" d="M0 135h269.578v135.422H0Zm0 0" />
  <path
    d="M130.673 56.94c23.676 0 42.063 6.402 55.157 19.203 13.093 12.793 19.64 30.734 19.64 53.828 0 16.125-3.11 30.406-9.328 42.844-6.21 12.43-14.902 22.12-26.078 29.078-11.168 6.949-23.93 10.422-38.281 10.422H75.392c-3.25 0-5.84-.774-7.766-2.328-1.918-1.551-2.875-4.032-2.875-7.438v-9.766c0-3.406.957-5.921 2.875-7.546 1.926-1.625 4.516-2.438 7.766-2.438h3.328V86.455h-3.328c-3.25 0-5.84-.812-7.766-2.437-1.918-1.625-2.875-4.14-2.875-7.547v-9.766c0-3.406.957-5.882 2.875-7.437 1.926-1.551 4.516-2.328 7.766-2.328Zm-.234 125.86c12.133 0 21.601-4.552 28.406-13.657 6.813-9.102 10.219-21.719 10.219-37.844 0-15.094-3.293-26.336-9.875-33.734-6.586-7.407-16.461-11.11-29.625-11.11h-15.328V182.8Zm0 0"
    fill="#fff"
  />
</svg>
