<?xml version="1.0" encoding="UTF-8"?>
<svg width="360" height="360" version="1.0" viewBox="0 0 270 270" xmlns="http://www.w3.org/2000/svg" zoomAndPan="magnify">
  <defs>
    <clipPath id="a">
      <path d="m0 125.16h270v144.75h-270z" />
    </clipPath>
  </defs>
  <rect x="-27" y="-27" width="324" height="324" fill="#fff" />
  <rect x="-27" y="-27" width="324" height="324" fill="#fff" />
  <rect x="-27" y="-27" width="324" height="324" fill="#fff" />
  <rect x="-27" y="-27" width="324" height="324" fill="#fff" />
  <g clip-path="url(#a)">
    <path d="m0.0078125 125.16h269.98v144.75h-269.98v-144.75" fill="#4091d3" />
  </g>
  <path d="m0 0h270v135h-270v-135" fill="#51a955" />
  <g fill="#fff">
    <g transform="translate(64.846 212.25)">
      <path d="m118.55-155.41c3.8438 0 6.9844 1.2266 9.4219 3.6719 2.4453 2.4375 3.6719 5.5859 3.6719 9.4375v27.078c0 3.2617-0.77734 5.8555-2.3281 7.7812-1.5547 1.918-4.0312 2.875-7.4375 2.875h-9.7656c-6.5117 0-9.7656-3.5508-9.7656-10.656v-10.656h-41.516v33.078h32.406c3.1133 0 5.707 1.0391 7.7812 3.1094 2.0703 2.0742 3.1094 4.6641 3.1094 7.7656v7.5469c0 3.1172-1.0391 5.7109-3.1094 7.7812-2.0742 2.0742-4.668 3.1094-7.7812 3.1094h-32.406v33.953h11.094c3.1133 0 5.6289 0.82031 7.5469 2.4531 1.9258 1.625 2.8906 4.1406 2.8906 7.5469v9.7656c0 3.4062-0.96484 5.8867-2.8906 7.4375-1.918 1.5547-4.4336 2.3281-7.5469 2.3281h-49.938c-3.2617 0-5.8555-0.77344-7.7812-2.3281-1.918-1.5508-2.875-4.0312-2.875-7.4375v-9.7656c0-3.4062 0.95703-5.9219 2.875-7.5469 1.9258-1.6328 4.5195-2.4531 7.7812-2.4531h3.3281v-96.344h-3.3281c-3.2617 0-5.8555-0.8125-7.7812-2.4375-1.918-1.6328-2.875-4.1484-2.875-7.5469v-9.7656c0-3.4062 0.95703-5.8828 2.875-7.4375 1.9258-1.5625 4.5195-2.3438 7.7812-2.3438z" />
    </g>
  </g>
</svg>
