<svg xmlns="http://www.w3.org/2000/svg" width="360" viewBox="0 0 270 270" height="360" version="1.0">
  <defs>
    <clipPath id="a">
      <path d="M0 .02h270v160.507H0Zm0 0" />
    </clipPath>
  </defs>
  <path fill="#fff" d="M-27-27h324v324H-27z" />
  <path fill="#fff" d="M-27-27h324v324H-27z" />
  <path fill="#fff" d="M-27-27h324v324H-27z" />
  <g clip-path="url(#a)">
    <path fill="#fcc800" d="M0 .02h269.578v160.734H0Zm0 0" />
  </g>
  <path fill="#003894" d="M0 135h269.578v135.422H0Zm0 0" />
  <path
    d="M211.46 86.455V182.8h3.343c3.25 0 5.832.813 7.75 2.438 1.926 1.625 2.891 4.14 2.891 7.546v9.766c0 3.406-.965 5.887-2.89 7.438-1.919 1.554-4.5 2.328-7.75 2.328h-42.188c-3.106 0-5.621-.774-7.547-2.328-1.918-1.551-2.875-4.032-2.875-7.438v-9.766c0-3.406.957-5.921 2.875-7.546 1.926-1.625 4.441-2.438 7.547-2.438h3.328V89.783l-29.078 71.704c-1.918 4.437-4.95 6.656-9.094 6.656h-11.094c-4.437 0-7.476-2.219-9.109-6.656l-29.297-72.36V182.8h3.547c3.113 0 5.629.813 7.547 2.438 1.926 1.625 2.89 4.14 2.89 7.546v9.766c0 3.406-.964 5.887-2.89 7.438-1.918 1.554-4.434 2.328-7.547 2.328H55.194c-3.25 0-5.84-.774-7.766-2.328-1.918-1.551-2.875-4.032-2.875-7.438v-9.766c0-3.406.957-5.921 2.875-7.546 1.926-1.625 4.516-2.438 7.766-2.438h3.328V86.455h-3.328c-3.25 0-5.84-.812-7.766-2.437-1.918-1.625-2.875-4.14-2.875-7.547v-9.766c0-3.406.957-5.882 2.875-7.437 1.926-1.551 4.516-2.328 7.766-2.328h49.063c4.738 0 7.921 2.218 9.546 6.656l21.532 54.61 21.75-54.61c1.77-4.438 4.953-6.656 9.547-6.656h48.171c3.25 0 5.832.777 7.75 2.328 1.926 1.555 2.891 4.031 2.891 7.437v9.766c0 3.406-.965 5.922-2.89 7.547-1.919 1.625-4.5 2.437-7.75 2.437Zm0 0"
    fill="#fff"
  />
</svg>
