<svg xmlns="http://www.w3.org/2000/svg" width="400" height="400">
    <g fill-rule="evenodd">
        <path d="M0 100v100h112.004l-.102 35.3-.102 35.3-5 .254c-7.864.4-11.455 2.394-14.062 7.808-1.442 2.995-1.459 25.762-.021 28.456 1.363 2.553 3.525 4.755 5.622 5.728l2.821 1.308c1.871.868 65.009.603 67.44-.283 7.402-2.698 9.2-6.777 9.2-20.871 0-17.174-3.211-21.756-15.502-22.127-4.828-.145-5.114-.2-5.31-1.013-.115-.473-.159-16.34-.098-35.26l.11-34.4 7.268-.109 7.268-.109 2.132 3.454c1.172 1.9 2.444 3.929 2.826 4.509.382.58.876 1.415 1.099 1.855.52 1.026 1.344 2.343 1.628 2.6.121.11 2.907 4.61 6.19 10 3.284 5.39 6.109 9.86 6.279 9.933a.57.57 0 0 1 .31.486c0 .309 2.471 4.444 4.495 7.523.383.582.834 1.328 1.003 1.658.169.33.936 1.594 1.705 2.81a248.386 248.386 0 0 1 1.873 3 3856.097 3856.097 0 0 0 11.002 17.73c.373.583 1.08 1.825 1.571 2.76.491.935 1.02 1.7 1.175 1.7.156 0 .392.315.525.7.133.385.602 1.24 1.042 1.9.44.66.938 1.47 1.107 1.8.169.33.936 1.594 1.705 2.81a232.836 232.836 0 0 1 1.872 3c.261.434 2.961 4.806 6 9.715 3.039 4.908 5.957 9.678 6.485 10.6.527.921 1.112 1.735 1.3 1.808.187.074.34.376.34.672 0 .296.225.783.5 1.083.673.734 1.419 1.922 1.887 3.001.85 1.963 5.346 5.944 7.613 6.739 5.46 1.916 35.552 1.21 38.031-.892.348-.295.839-.536 1.092-.536.889 0 4.713-4.266 5.756-6.421 2.169-4.483 2.076-2.134 2.215-55.879l.13-50.1H400V0H0v100m158.372-14.717c4.06 1.363 5.555 3.162 13.83 16.634A8266.427 8266.427 0 0 0 180 114.595c.33.529 3.84 6.201 7.8 12.605 3.96 6.404 7.47 12.069 7.8 12.589.33.521 4.56 7.367 9.4 15.213 4.84 7.847 9.07 14.692 9.4 15.211.33.519 3.84 6.183 7.8 12.587s7.512 12.129 7.894 12.722c.382.593.882 1.438 1.112 1.878.551 1.057 2.273 3.916 8.994 14.936 4.857 7.964 6.697 10.517 7.2 9.992.068-.071.005-21.278-.139-47.128l-.261-47-4.514-.24c-8.393-.446-12.804-3.04-14.886-8.754-1.06-2.907-1.209-23-.192-25.917 1.454-4.175 4.155-6.628 8.917-8.099 3.665-1.131 62.557-1.237 66.129-.118 7.981 2.5 9.25 5.233 9.444 20.328.231 17.976-2.368 21.928-14.792 22.501-4.585.211-4.786.258-5.139 1.185-.218.575-.372 34.929-.379 84.84-.013 86.969-.037 88.219-1.742 91.427-4.372 8.221-7.203 9.151-27.246 8.95-21.143-.212-19.547.675-30.247-16.817-3.796-6.207-7.292-11.826-7.769-12.486-.476-.66-.984-1.47-1.129-1.8-.145-.33-.577-1.086-.959-1.679-.383-.594-4.476-7.21-9.096-14.702s-8.885-14.387-9.478-15.321a106.095 106.095 0 0 1-1.6-2.589c-.545-.93-18.873-30.663-19.922-32.317-.33-.521-2.814-4.512-5.519-8.869a1827.574 1827.574 0 0 0-8.482-13.523c-1.96-3.08-3.796-5.997-4.081-6.481-2.474-4.21-6.965-11.316-7.153-11.317-.813-.006-1.076 93.643-.265 94.313.275.227 2.57.483 5.1.568 11.747.396 14.774 4.227 15.108 19.122.376 16.775-1.327 20.798-9.829 23.23-3.81 1.089-60.519 1.189-64.853.114-4.871-1.209-7.187-2.967-9.139-6.939L92.2 304.6l.004-11.8.005-11.8 1.044-2.234c2.442-5.222 6.953-7.549 14.657-7.56l4.11-.006.428-1.1c.304-.779.33-21.629.091-71.5l-.339-70.4-5.026-.262c-7.517-.393-11.79-2.675-14.114-7.538-1.25-2.616-1.335-25.596-.104-28.2 1.685-3.564 4.38-5.843 8.244-6.972.99-.289 1.98-.579 2.2-.645 2.438-.731 52.615-.092 54.972.7m88.335 124.91c.059 5.496.009 10.25-.112 10.565-.133.346-1.751-1.913-4.107-5.735-2.139-3.469-4.201-6.783-4.584-7.365-.382-.582-.819-1.328-.97-1.658-.151-.33-.693-1.157-1.205-1.838-.511-.681-.929-1.423-.929-1.651 0-.227-.27-.637-.6-.911-1.688-1.401-.817-1.623 5.9-1.51l6.5.11.107 9.993" fill="#b4bc44"/>
        <path d="M103.4 84.583c-.22.066-1.21.356-2.2.645-3.864 1.129-6.559 3.408-8.244 6.972-1.231 2.604-1.146 25.584.104 28.2 2.324 4.863 6.597 7.145 14.114 7.538l5.026.262.339 70.4c.239 49.871.213 70.721-.091 71.5l-.428 1.1-4.11.006c-7.704.011-12.215 2.338-14.657 7.56L92.209 281l-.005 11.8-.004 11.8 1.087 2.21c1.952 3.972 4.268 5.73 9.139 6.939 4.334 1.075 61.043.975 64.853-.114 8.502-2.432 10.205-6.455 9.829-23.23-.334-14.895-3.361-18.726-15.108-19.122-2.53-.085-4.825-.341-5.1-.568-.811-.67-.548-94.319.265-94.313.188.001 4.679 7.107 7.153 11.317.285.484 2.121 3.401 4.081 6.481 1.959 3.08 5.776 9.165 8.482 13.523 2.705 4.357 5.189 8.348 5.519 8.869 1.049 1.654 19.377 31.387 19.922 32.317.286.49 1.006 1.655 1.6 2.589.593.934 4.858 7.829 9.478 15.321s8.713 14.108 9.096 14.702c.382.593.814 1.349.959 1.679.145.33.653 1.14 1.129 1.8.477.66 3.973 6.279 7.769 12.486 10.7 17.492 9.104 16.605 30.247 16.817 20.043.201 22.874-.729 27.246-8.95 1.705-3.208 1.729-4.458 1.742-91.427.007-49.911.161-84.265.379-84.84.353-.927.554-.974 5.139-1.185 12.424-.573 15.023-4.525 14.792-22.501-.194-15.095-1.463-17.828-9.444-20.328-3.572-1.119-62.464-1.013-66.129.118-4.762 1.471-7.463 3.924-8.917 8.099-1.017 2.917-.868 23.01.192 25.917 2.082 5.714 6.493 8.308 14.886 8.754l4.514.24.261 47c.144 25.85.207 47.057.139 47.128-.503.525-2.343-2.028-7.2-9.992-6.721-11.02-8.443-13.879-8.994-14.936-.23-.44-.73-1.285-1.112-1.878-.382-.593-3.934-6.318-7.894-12.722s-7.47-12.068-7.8-12.587c-.33-.519-4.56-7.364-9.4-15.211-4.84-7.846-9.07-14.692-9.4-15.213-.33-.52-3.84-6.185-7.8-12.589-3.96-6.404-7.47-12.076-7.8-12.605-.33-.529-3.839-6.234-7.798-12.678-11.787-19.189-7.756-17.528-42.43-17.485-14.285.017-26.152.085-26.372.151" fill="#fbfbfb"/>
        <path d="M0 300v100h400V200H292.424l-.13 50.1c-.139 53.745-.046 51.396-2.215 55.879-1.043 2.155-4.867 6.421-5.756 6.421-.253 0-.744.241-1.092.536-2.479 2.102-32.571 2.808-38.031.892-2.267-.795-6.763-4.776-7.613-6.739-.468-1.079-1.214-2.267-1.887-3.001-.275-.3-.5-.787-.5-1.083 0-.296-.153-.598-.34-.672-.188-.073-.773-.887-1.3-1.808-.528-.922-3.446-5.692-6.485-10.6a3159.436 3159.436 0 0 1-6-9.715 232.836 232.836 0 0 0-1.872-3c-.769-1.216-1.536-2.48-1.705-2.81-.169-.33-.667-1.14-1.107-1.8-.44-.66-.909-1.515-1.042-1.9s-.369-.7-.525-.7c-.155 0-.684-.765-1.175-1.7-.491-.935-1.198-2.177-1.571-2.76a3856.097 3856.097 0 0 1-11.002-17.73 248.386 248.386 0 0 0-1.873-3c-.769-1.216-1.536-2.48-1.705-2.81-.169-.33-.62-1.076-1.003-1.658-2.024-3.079-4.495-7.214-4.495-7.523a.57.57 0 0 0-.31-.486c-.17-.073-2.995-4.543-6.279-9.933-3.283-5.39-6.069-9.89-6.19-10-.284-.257-1.108-1.574-1.628-2.6a23.578 23.578 0 0 0-1.099-1.855c-.382-.58-1.654-2.609-2.826-4.509l-2.132-3.454-7.268.109-7.268.109-.11 34.4c-.061 18.92-.017 34.787.098 35.26.196.813.482.868 5.31 1.013 12.291.371 15.502 4.953 15.502 22.127 0 14.094-1.798 18.173-9.2 20.871-2.431.886-65.569 1.151-67.44.283l-2.821-1.308c-2.097-.973-4.259-3.175-5.622-5.728-1.438-2.694-1.421-25.461.021-28.456 2.607-5.414 6.198-7.408 14.062-7.808l5-.254.102-35.3.102-35.3H0v100m233.6-99.459c0 .309.27.785.6 1.059.33.274.6.684.6.911 0 .228.418.97.929 1.651.512.681 1.054 1.508 1.205 1.838.151.33.588 1.076.97 1.658.383.582 2.445 3.896 4.584 7.365 2.356 3.822 3.974 6.081 4.107 5.735.121-.315.171-5.069.112-10.565l-.107-9.993-6.5-.11c-5.362-.091-6.5-.012-6.5.451" fill="#3c8444"/>
    </g>
</svg>
