<?xml version="1.0" encoding="UTF-8"?>
<svg width="360" height="360" version="1.0" viewBox="0 0 270 270" xmlns="http://www.w3.org/2000/svg" zoomAndPan="magnify">
  <defs>
    <clipPath id="d">
      <path d="m0 0.019531h270v96h-270z" />
    </clipPath>
    <clipPath id="c">
      <path d="m0 90.008h270v41.25h-270z" />
    </clipPath>
    <clipPath id="b">
      <path d="m0 119.72h270v73.5h-270z" />
    </clipPath>
    <clipPath id="a">
      <path d="m0 179.95h270v90h-270z" />
    </clipPath>
  </defs>
  <rect x="-27" y="-27" width="324" height="324" fill="#fff" />
  <rect x="-27" y="-27" width="324" height="324" fill="#fff" />
  <rect x="-27" y="-27" width="324" height="324" fill="#fff" />
  <rect x="-27" y="-27" width="324" height="324" fill="#fff" />
  <g clip-path="url(#d)">
    <path d="m0.015625 0.019531h269.97v96h-269.97v-96" fill="#3b863e" />
  </g>
  <g clip-path="url(#c)">
    <path d="m0.027344 90.008h269.95v41.25h-269.95v-41.25" fill="#ed702d" />
  </g>
  <g clip-path="url(#b)">
    <path d="m0.0039062 119.72h269.99v73.5h-269.99v-73.5" fill="#ea3323" />
  </g>
  <g clip-path="url(#a)">
    <path d="m0.015625 179.95h269.97v90h-269.97v-90" fill="#3b863e" />
  </g>
  <g fill="#fff">
    <g transform="translate(71.626 212.31)">
      <path d="m108.55-155.38c3.1016 0 5.7266 1.0391 7.875 3.1094 2.1445 2.0742 3.2188 4.7344 3.2188 7.9844v9.5469c0 2.2188-0.26172 4.2578-0.78125 6.1094-0.51172 1.8438-1.3594 4.0273-2.5469 6.5469l-52.391 114.09c-2.5117 5.3242-6.2812 7.9844-11.312 7.9844h-12.875c-4.293 0-7.4375-0.88281-9.4375-2.6562-2-1.7812-3-4.2227-3-7.3281 0-2.5195 0.89062-5.5547 2.6719-9.1094l49.719-106.77-43.062 0.21875v3.3281c0 3.1172-0.82031 5.6367-2.4531 7.5625-1.625 1.918-4.1367 2.875-7.5312 2.875h-9.7656c-3.4062 0-5.8867-0.95703-7.4375-2.875-1.5547-1.9258-2.3281-4.4453-2.3281-7.5625v-20.406c0-3.707 1.2188-6.7422 3.6562-9.1094 2.4375-2.3633 5.582-3.5469 9.4375-3.5469z" />
    </g>
  </g>
</svg>
