<svg xmlns="http://www.w3.org/2000/svg" xmlns:xlink="http://www.w3.org/1999/xlink" version="1.1" id="layer" x="0px" y="0px" style="enable-background:new 0 0 652 652;" xml:space="preserve" viewBox="88.9 72 463 500">
<style type="text/css">
	.st0{fill:#0079C4;}
	.st1{fill-rule:evenodd;clip-rule:evenodd;fill:#0079C4;}
	.st2{fill:#1EAA39;}
</style>
<rect x="88.9" y="406.5" class="st0" width="463" height="165.5"/>
<path class="st1" d="M334.6,314.2l-9.7-24.7l-14.2,0c0,0,17.5,42.3,17.2,42.7c-0.1,0.3-5.9,15-6.2,15.4c0.4,0.1,14.2,0,14.3-0.1  c0.1-0.7,21.2-58,21.2-58h-13.6L334.6,314.2z"/>
<path class="st1" d="M278.6,268.7c-4.5,0-8.2,3.7-8.2,8.2c0,4.5,3.6,8.2,8.2,8.2c4.5,0,8.2-3.7,8.2-8.2  C286.8,272.3,283.1,268.7,278.6,268.7"/>
<path class="st1" d="M192.6,330.2c0-1.5,0-2.6,0-4.1c0-7.5,0-15,0-22.6c0-0.2,0-0.4,0-0.6c-0.2-2.6-1.7-13.3-14.7-13.9  c-0.1,0-3.7,0-3.7,0c-13.4,0.3-15.1,3.1-15.1,3.1v10.7c0,0,4.1-3.2,9.9-3.3c5.7-0.1,8,0.8,9.3,2c0.3,0.3,0.6,0.7,0.9,1.1  c0.4,0.9,0.8,1.6,1,2.8c0,0-0.1,0.6-0.2,0.7c-0.1,0.1-0.5,0.1-0.5,0.1c-0.1,0-0.4-0.1-0.5-0.1c-0.3-0.2-2.2-1.3-9.6-1  c-4.6,0.2-9.8,3.5-10.8,4.8c-1.3,1.5-4.4,3.8-4.4,11.6c0,2.6,1,5.8,3.2,9.6c2.2,3.8,9.1,4.9,9.3,4.9c3.5,0.1,7.3-0.1,9-0.6  c1.8-0.6,3.5-1.8,4-2.2c0.3-0.3,1-0.2,1,0.1c0,0.8,0.2,1.5,0.6,2.2c0.1,0.4,0.2,0.6,0.2,0.6s13.1,0,13.4,0c-0.5-0.6-0.9-1-1.1-1.5  C193.6,333.6,192.6,331.1,192.6,330.2 M179,324.5c-0.9,0.8-2.2,0.9-8.1,0.9c-0.9,0-4.4-1.3-4.4-5.2c0-7.2,7.4-6.5,9.5-6.5  c2,0,4.2,0.8,4.2,2.2c0,1.1,0.1,4.4,0.1,5.9C180.3,323.3,179.6,324,179,324.5"/>
<path class="st1" d="M466.8,330.2c0-1.5,0-2.6,0-4.1v-22.6c0-0.2,0-0.4,0-0.6c-0.2-2.6-1.6-13.3-14.7-13.9c-0.1,0-3.7,0-3.7,0  c-13.5,0.3-15.1,3.1-15.1,3.1v10.7c0,0,4.1-3.2,9.8-3.3c5.7-0.1,8,0.8,9.4,2c0.3,0.3,0.6,0.7,0.9,1.1c0.4,0.9,0.8,1.6,1,2.8  c0,0-0.1,0.6-0.2,0.7c-0.1,0.1-0.5,0.1-0.5,0.1c-0.1,0-0.4-0.1-0.5-0.1c-0.2-0.2-2.2-1.3-9.5-1c-4.7,0.2-9.8,3.5-10.9,4.8  c-1.3,1.5-4.4,3.8-4.4,11.6c0,2.6,1,5.8,3.2,9.6c2.2,3.8,9.1,4.9,9.3,4.9c3.5,0.1,7.3-0.1,9-0.6c1.8-0.6,3.5-1.8,4-2.2  c0.3-0.3,1-0.2,1,0.1c0,0.8,0.3,1.5,0.6,2.2c0.2,0.4,0.3,0.6,0.3,0.6s13.1,0,13.4,0c-0.5-0.6-0.9-1-1.2-1.5  C467.8,333.6,466.8,331.1,466.8,330.2 M453.2,324.5c-0.9,0.8-2.2,0.9-8.1,0.9c-0.9,0-4.4-1.3-4.4-5.2c0-7.2,7.4-6.5,9.5-6.5  c2,0,4.2,0.8,4.2,2.2c0,1.1,0,4.4,0,5.9C454.5,323.3,453.8,324,453.2,324.5"/>
<path class="st1" d="M248.9,288.9c-7.2,0-13.1,2.4-13.4,5.5h0c-0.3-3.1-5.6-5.5-12.2-5.5c-5.1,0-9.5,1.5-11.3,3.6c0-1,0-1.9,0-2.9  c-0.3,0-0.4,0-0.5,0c-3.5,0-7.1,0-10.6,0c-0.5,0-0.6,0.2-0.6,0.6v4.3v40.4v1.1h12.2v-30.3c0-2.5,2.9-4.5,6.6-4.5s6.6,2,6.6,4.5v30.3  h12.5v-30.3c0-2.5,2.9-4.5,6.6-4.5s6.6,2,6.6,4.5v30.3h12.7v-32.5V303v-0.9c0,0,0,0,0-0.1C263.5,293,256.1,288.9,248.9,288.9"/>
<path class="st1" d="M486.3,293.4v-3.9H474v46.4h12.2v-30c1.3-1.1,4.7-3.5,8.6-3.5c5,0,7.3,1.9,7.3,1.9v-13.5c0,0-2.9-1.7-6.5-1.7  C492.9,289.1,488.5,291.6,486.3,293.4"/>
<rect x="272.3" y="289.5" class="st1" width="12.4" height="46.4"/>
<rect x="294" y="269.6" class="st1" width="12.3" height="66.3"/>
<polygon class="st1" points="124.3,282.3 154.3,282.3 154.3,269.6 124.3,269.6 111.4,269.6 111.4,282.3 111.4,335.9 124.3,335.9   124.3,306.8 153.1,306.8 153.1,294.1 124.3,294.1 "/>
<path class="st1" d="M535,301.6v-12.1h-10.7v-17.4l-12.2,5.6v11.7h-6.8v12.1h6.8v20.2l0,0c0,0.3,0,0.5,0,0.8v0.5h0.1  c0.7,11.5,10.6,12.8,15.4,12.8c5,0,6.9-1.3,6.9-1.3v-11.5c0,0-1.1,0.9-5.6,0.9c-4.5,0-4.5-6.2-4.5-6.2v-16.3H535z"/>
<path class="st1" d="M391.6,289.9c-1.3-1.6-16.5-20.3-16.5-20.3h-13.4v66.4h13.4v-45.8c0,0,14,17.9,16.5,21.2  c2.5-3.2,16.5-21.1,16.5-21.2v45.8h13.5v-66.4h-13.5C408.1,269.6,392.9,288.3,391.6,289.9"/>
<rect x="88.9" y="72" class="st2" width="463" height="147.2"/>
</svg>