<?xml version="1.0" encoding="UTF-8"?>
<svg enable-background="new 0 0 652 652" version="1.1" viewBox="88.9 72 463 500" xml:space="preserve" xmlns="http://www.w3.org/2000/svg">
  <style type="text/css">
    .st0 {
      fill: #0079C4;
    }

    .st1 {
      fill-rule: evenodd;
      clip-rule: evenodd;
      fill: #0079C4;
    }

    .st2 {
      fill: #1EAA39;
    }
  </style>
  <rect class="st0" x="88.9" y="406.5" width="463" height="165.5" />
  <path class="st1" d="m334.6 314.2-9.7-24.7h-14.2s17.5 42.3 17.2 42.7c-0.1 0.3-5.9 15-6.2 15.4 0.4 0.1 14.2 0 14.3-0.1 0.1-0.7 21.2-58 21.2-58h-13.6l-9 24.7z" />
  <path class="st1" d="m278.6 268.7c-4.5 0-8.2 3.7-8.2 8.2s3.6 8.2 8.2 8.2c4.5 0 8.2-3.7 8.2-8.2 0-4.6-3.7-8.2-8.2-8.2" />
  <path class="st1" d="m192.6 330.2v-4.1-22.6-0.6c-0.2-2.6-1.7-13.3-14.7-13.9h-3.7c-13.4 0.3-15.1 3.1-15.1 3.1v10.7s4.1-3.2 9.9-3.3c5.7-0.1 8 0.8 9.3 2 0.3 0.3 0.6 0.7 0.9 1.1 0.4 0.9 0.8 1.6 1 2.8 0 0-0.1 0.6-0.2 0.7s-0.5 0.1-0.5 0.1c-0.1 0-0.4-0.1-0.5-0.1-0.3-0.2-2.2-1.3-9.6-1-4.6 0.2-9.8 3.5-10.8 4.8-1.3 1.5-4.4 3.8-4.4 11.6 0 2.6 1 5.8 3.2 9.6s9.1 4.9 9.3 4.9c3.5 0.1 7.3-0.1 9-0.6 1.8-0.6 3.5-1.8 4-2.2 0.3-0.3 1-0.2 1 0.1 0 0.8 0.2 1.5 0.6 2.2 0.1 0.4 0.2 0.6 0.2 0.6s13.1 0 13.4 0c-0.5-0.6-0.9-1-1.1-1.5-0.2-1-1.2-3.5-1.2-4.4m-13.6-5.7c-0.9 0.8-2.2 0.9-8.1 0.9-0.9 0-4.4-1.3-4.4-5.2 0-7.2 7.4-6.5 9.5-6.5 2 0 4.2 0.8 4.2 2.2 0 1.1 0.1 4.4 0.1 5.9s-0.7 2.2-1.3 2.7" />
  <path class="st1" d="m466.8 330.2v-4.1-22.6-0.6c-0.2-2.6-1.6-13.3-14.7-13.9h-3.7c-13.5 0.3-15.1 3.1-15.1 3.1v10.7s4.1-3.2 9.8-3.3 8 0.8 9.4 2c0.3 0.3 0.6 0.7 0.9 1.1 0.4 0.9 0.8 1.6 1 2.8 0 0-0.1 0.6-0.2 0.7s-0.5 0.1-0.5 0.1c-0.1 0-0.4-0.1-0.5-0.1-0.2-0.2-2.2-1.3-9.5-1-4.7 0.2-9.8 3.5-10.9 4.8-1.3 1.5-4.4 3.8-4.4 11.6 0 2.6 1 5.8 3.2 9.6s9.1 4.9 9.3 4.9c3.5 0.1 7.3-0.1 9-0.6 1.8-0.6 3.5-1.8 4-2.2 0.3-0.3 1-0.2 1 0.1 0 0.8 0.3 1.5 0.6 2.2l0.3 0.6s13.1 0 13.4 0c-0.5-0.6-0.9-1-1.2-1.5-0.2-1-1.2-3.5-1.2-4.4m-13.6-5.7c-0.9 0.8-2.2 0.9-8.1 0.9-0.9 0-4.4-1.3-4.4-5.2 0-7.2 7.4-6.5 9.5-6.5 2 0 4.2 0.8 4.2 2.2v5.9c0.1 1.5-0.6 2.2-1.2 2.7" />
  <path class="st1" d="m248.9 288.9c-7.2 0-13.1 2.4-13.4 5.5-0.3-3.1-5.6-5.5-12.2-5.5-5.1 0-9.5 1.5-11.3 3.6v-2.9h-0.5-10.6c-0.5 0-0.6 0.2-0.6 0.6v45.8h12.2v-30.3c0-2.5 2.9-4.5 6.6-4.5s6.6 2 6.6 4.5v30.3h12.5v-30.3c0-2.5 2.9-4.5 6.6-4.5s6.6 2 6.6 4.5v30.3h12.7v-33.9-0.1c-0.6-9-8-13.1-15.2-13.1" />
  <path class="st1" d="m486.3 293.4v-3.9h-12.3v46.4h12.2v-30c1.3-1.1 4.7-3.5 8.6-3.5 5 0 7.3 1.9 7.3 1.9v-13.5s-2.9-1.7-6.5-1.7c-2.7 0-7.1 2.5-9.3 4.3" />
  <rect class="st1" x="272.3" y="289.5" width="12.4" height="46.4" />
  <rect class="st1" x="294" y="269.6" width="12.3" height="66.3" />
  <polygon class="st1" points="124.3 282.3 154.3 282.3 154.3 269.6 124.3 269.6 111.4 269.6 111.4 282.3 111.4 335.9 124.3 335.9 124.3 306.8 153.1 306.8 153.1 294.1 124.3 294.1" />
  <path class="st1" d="m535 301.6v-12.1h-10.7v-17.4l-12.2 5.6v11.7h-6.8v12.1h6.8v20.2 0.8 0.5h0.1c0.7 11.5 10.6 12.8 15.4 12.8 5 0 6.9-1.3 6.9-1.3v-11.5s-1.1 0.9-5.6 0.9-4.5-6.2-4.5-6.2v-16.3h10.6z" />
  <path class="st1" d="m391.6 289.9c-1.3-1.6-16.5-20.3-16.5-20.3h-13.4v66.4h13.4v-45.8s14 17.9 16.5 21.2c2.5-3.2 16.5-21.1 16.5-21.2v45.8h13.5v-66.4h-13.5s-15.2 18.7-16.5 20.3" />
  <rect class="st2" x="88.9" y="72" width="463" height="147.2" />
</svg>
