<?xml version="1.0" encoding="UTF-8"?>
<svg width="360" height="360" version="1.0" viewBox="0 0 270 270" xmlns="http://www.w3.org/2000/svg" zoomAndPan="magnify">
  <defs />
  <rect x="-27" y="-27" width="324" height="324" fill="#fff" />
  <rect x="-27" y="-27" width="324" height="324" fill="#fff" />
  <rect x="-27" y="-27" width="324" height="324" fill="#fff" />
  <rect x="-27" y="-27" width="324" height="324" fill="#fff" />
  <rect x="-27" y="-27" width="324" height="324" fill="#2e69b1" />
  <g fill="#fff">
    <g transform="translate(65.845 212.25)">
      <path d="m119.44-54.391c3.4062 0 5.8828 0.96484 7.4375 2.8906 1.5508 1.918 2.3281 4.5078 2.3281 7.7656v31.078c0 3.6992-1.2266 6.7344-3.6719 9.1094-2.4375 2.3672-5.5781 3.5469-9.4219 3.5469h-94.125c-3.2617 0-5.8555-0.77344-7.7812-2.3281-1.918-1.5508-2.875-4.0312-2.875-7.4375v-9.7656c0-3.4062 0.95703-5.9219 2.875-7.5469 1.9258-1.6328 4.5195-2.4531 7.7812-2.4531h3.3281v-96.344h-3.3281c-3.2617 0-5.8555-0.8125-7.7812-2.4375-1.918-1.6328-2.875-4.1484-2.875-7.5469v-9.7656c0-3.4062 0.95703-5.8828 2.875-7.4375 1.9258-1.5625 4.5195-2.3438 7.7812-2.3438h50.828c3.2578 0 5.8477 0.78125 7.7656 2.3438 1.9258 1.5547 2.8906 4.0312 2.8906 7.4375v9.7656c0 3.3984-0.96484 5.9141-2.8906 7.5469-1.918 1.625-4.5078 2.4375-7.7656 2.4375h-11.984v96.344h39.078v-14.203c0-7.1016 3.2539-10.656 9.7656-10.656z" />
    </g>
  </g>
</svg>
