<svg xmlns="http://www.w3.org/2000/svg" xmlns:xlink="http://www.w3.org/1999/xlink" version="1.1" id="layer" x="0px" y="0px" style="enable-background:new 0 0 652 652;" xml:space="preserve" viewBox="87 71.93 498.3 500.06">
<style type="text/css">
	.st0{fill-rule:evenodd;clip-rule:evenodd;fill:#1972B1;}
	.st1{fill-rule:evenodd;clip-rule:evenodd;fill:#FFFFFF;}
</style>
<path class="st0" d="M584.3,523.1C419,588.3,253.6,588.4,87,522.7c6-19.2,11.7-37.6,17.4-55.8c14.3-46.3,28.8-92.6,42.8-139  c1.2-4.1,0.9-9.3-0.4-13.5c-19.4-63.1-39.1-126-58.7-189.1c-0.3-0.8-0.3-1.7-0.7-4.1c165.6-65.7,331.1-65.7,497.9,0  c-5.4,17.3-10.5,33.9-15.6,50.5c-14.7,47.1-29.6,94.1-43.7,141.4c-1.8,6.1-1,13.8,0.9,20.1c19,62.3,38.4,124.4,57.7,186.6  C584.8,520.4,584.5,521,584.3,523.1 M570.2,128.5c-156.5-58.9-311.9-58.9-467.7-0.1c0.6,2.9,0.7,4.4,1.1,5.8  c18.4,59.1,36.9,118.2,54.9,177.4c1.8,6,2.3,13.4,0.5,19.4c-14.2,47.5-29.2,94.9-43.9,142.3c-4.3,13.8-8.5,27.7-12.9,41.9  C188,549.1,276,563.2,366.8,559c69.9-3.2,137.7-17.5,202.9-43.9c-0.4-2.1-0.5-3.6-0.9-4.9c-18.8-60.5-37.6-121-56.2-181.6  c-1.1-3.7-1.7-8.3-0.6-11.9c11.6-38.2,23.7-76.4,35.6-114.5C555.1,178.1,562.5,153.8,570.2,128.5"/>
<path class="st1" d="M570.2,128.5c-7.8,25.3-15.1,49.6-22.7,73.7c-11.9,38.2-23.9,76.3-35.5,114.5c-1.1,3.6-0.6,8.2,0.6,11.9  c18.6,60.6,37.4,121.1,56.2,181.6c0.4,1.3,0.5,2.8,0.9,4.9c-65.2,26.4-133,40.6-202.9,43.9c-90.8,4.2-178.8-9.9-264.5-43.9  c4.4-14.2,8.6-28.1,12.9-41.9c14.7-47.4,29.7-94.7,43.9-142.3c1.8-5.9,1.3-13.4-0.5-19.4c-18-59.2-36.6-118.3-54.9-177.4  c-0.4-1.4-0.5-2.9-1.1-5.8C258.3,69.6,413.7,69.6,570.2,128.5 M113.6,133.8c0.5,2.5,0.7,4,1.1,5.3c18.1,58.3,36.2,116.5,54.1,174.9  c1.3,4.4,1.9,9.9,0.6,14.2c-8.5,28.8-17.7,57.5-26.6,86.2c-9.8,31.4-19.5,62.9-29.5,95.2c66.8,25.8,135.6,39,206.5,40.8  c82.1,2.1,161.7-11,238.9-40.6c-0.6-2.1-0.9-3.5-1.3-4.8c-18.3-59.1-36.6-118.2-54.8-177.4c-1-3.1-1.2-6.9-0.3-9.9  c14.2-46.4,28.6-92.6,42.9-138.9c4.6-14.7,9-29.3,13.8-44.8C409.9,79.9,262,79.9,113.6,133.8"/>
<path class="st0" d="M502.7,327.5c-1-3.1-1.2-6.9-0.3-9.9c14.2-46.4,28.6-92.6,42.9-138.9c4.6-14.7,9-29.3,13.8-44.8  c-149.2-54-297.1-54-445.5,0c0.6,2.5,0.7,4,1.1,5.3c18.1,58.3,36.2,116.5,54.1,174.9c1.3,4.4,1.9,9.9,0.6,14.2  c-8.5,28.8-17.7,57.5-26.6,86.2c-9.8,31.4-19.5,62.9-29.5,95.2c66.8,25.8,135.6,39,206.5,40.8c82.1,2,161.7-11,238.9-40.6  c-0.6-2.1-0.9-3.5-1.3-4.9C539.2,445.8,520.8,386.7,502.7,327.5"/>
<path class="st1" d="M301.4,258.2c-16.4-0.9-16-0.8-12.4-18.5c0.9-4.3-1.8-9.6-3.7-14.1c-9.7-23.1-4.8-29,20.3-31.9  c23.6-2.8,47.3-3.2,70.7,1.7c15.3,3.2,18.2,9.1,13,23.8c-1.7,4.7-3.7,9.3-4.7,14.1c-0.7,3.1,0.3,6.4,0.4,9.7  c0.1,4.3,1.1,9.2-0.6,12.7c-0.9,1.8-6.8,1.2-10.4,1.6c-1,0.1-2.1,0.4-3.1,0.6c-0.9,1.1-1.9,2.2-2.8,3.4c2.6,1.2,5.6,2,7.8,3.7  c15.3,12.5,22.2,29.4,22.5,48.5c0.6,38,0.3,76.1,0.2,114.2c0,12.3-4.4,20-16.7,20.9c-25,1.8-49.7,1.3-75.1,0.8  c-6.3,0.1-12.8-1.3-19.1-2.4c-8.8-1.5-13.8-7.6-13.7-15.8c0.2-43,0.4-86,1.7-128.9c0.5-14.5,8.4-26.6,19.5-36.1  c2.5-2.2,5.9-3.5,8.8-5.2C303.1,259.9,302.3,259.1,301.4,258.2 M372.5,250.6c4.8-13.6,9.5-26.1,13.6-38.8c1.9-6-1.6-9.7-7.2-10.8  c-28.4-5.7-56.9-5.9-85.2,0.3c-3,0.7-7.7,6.5-7.1,8.7c3.7,13.5,8.6,26.7,13.4,40.7c8.7-5.9,9-13.1,9-20.5c0.1-11.7,0.1-11.9,12-12  c10.8-0.2,21.6,0.4,32.5-0.1c7.9-0.3,11.2,2.2,10.3,10.5C362.7,236.5,363.2,244.5,372.5,250.6 M313.5,255.9h45.9  C351.7,250.8,319.6,251,313.5,255.9"/>
<path class="st1" d="M288,152.7c3.2-8.5,6.6-17,10.4-26c-2,0.1-3.4,0.2-4.7,0.3c-1.8,0.1-2.7-0.6-2.8-2.3c-0.1-1.9-0.3-3.8-0.4-5.7  c-0.1-1.5,0.5-2.3,2.1-2.4c7.2-0.5,14.4-0.9,21.5-1.2c1.6,0,2.3,0.6,2.3,2.2c0,2,0.1,4,0.2,6c0.1,1.5-0.6,2.2-2.2,2.3  c-1,0-2.1,0-3.2,0.1c-1.8,0.1-2.1,0.5-1.2,2.1c2.4,4.4,4.8,8.9,7.2,13.4c1.4,2.6,2.7,5.1,4,7.7c0.3,0.6,0.6,1.1,1.2,2.1  c0.5-0.9,0.9-1.4,1.2-2c3.6-7.2,7.3-14.4,11.1-21.6c1-2,0.9-2.2-1.5-2.2c-1.1,0-2.2,0-3.4,0c-1.5,0-2.4-0.6-2.4-2.1  c-0.1-2.1-0.1-4.1-0.1-6.2c0-1.3,0.7-2,2.1-2c7.3-0.1,14.6,0,21.9,0.1c1.6,0,2.2,1,2.2,2.2c0.1,2.1,0,4.2-0.1,6.2  c-0.1,1.3-0.9,2-2.4,2c-6-0.2-4.7-0.8-7.7,4.5c-5.3,9.2-10.2,18.7-14.9,28.1c-1.2,2.4-1,2.7,1.6,2.7c4.6,0,4.6,0,4.6,4.5  c0,1.3,0,2.5,0,3.8c0.1,1.6-0.8,2.3-2.2,2.4c-6.3,0.1-12.6,0.2-18.9,0.4c-1.9,0.1-2.6-0.7-2.8-2.7c-0.1-1.8-0.2-3.7-0.3-5.5  c-0.1-1.7,0.7-2.4,2.3-2.5c0.8,0,1.6-0.1,2.4,0c2,0.1,2.4-0.4,1.5-2.2c-3.2-6.1-6.4-12.2-9.8-18.3c-0.7-1.3-1.6-2.7-2.3-4  c-0.2,0-0.4,0-0.6,0c-3.6,8.4-7,16.8-10.5,25.7c1.6-0.1,2.7-0.2,3.8-0.3c3.1-0.1,3.6,0.3,3.8,3.4c0.1,1.2,0.1,2.5,0.2,3.8  c0.1,2.4-0.5,3.3-2.8,3.4c-6.4,0.4-12.8,0.8-19.2,1.2c-0.6,0-1.6-0.8-1.8-1.4c-0.4-2.2-0.6-4.5-0.7-6.8c-0.1-1.3,0.7-2,1.9-2.1  c1.1-0.1,2.2-0.3,3.3-0.3c1.3-0.1,1.6-0.6,0.9-1.8c-2.1-3.3-4.2-6.6-6.3-9.8c-4.3-6.5-8.7-12.9-13.1-19.3c-1.2-1.8-2.6-2.7-4.9-2.1  c-0.6,0.2-1.3,0.3-2,0.2c-1.2,0-2.2-0.5-2.4-1.8c-0.3-2.1-0.6-4.3-0.8-6.4c-0.2-1.3,0.4-1.9,1.7-2.1c7.3-0.9,14.7-1.8,22.1-2.3  c0.6,0,1.9,0.9,1.9,1.5c0.4,2.3,0.6,4.6,0.6,7c0,0.6-1.1,1.5-1.9,1.7c-1.2,0.4-2.6,0.3-3.9,0.5c-2,0.2-2.2,0.6-1.1,2.2  c3.5,5.3,7.1,10.5,10.5,15.9c1.3,2,2.6,4,3.8,5.9C287.6,152.8,287.8,152.8,288,152.7"/>
<path class="st1" d="M504.4,174.5c0.4-1.1,0.7-1.6,0.9-2.2c1.9-6.3,3.8-12.7,5.6-19c0.6-2.2,0.4-2.5-1.9-3.2c-5.7-1.7-5.6-1-4-6.6  c1.6-5.5,0.9-5.1,6.7-3.5c5.6,1.6,11.2,3.3,16.7,5.1c2.3,0.7,2.6,1.2,1.9,3.4c-0.6,1.7-1.1,3.4-1.6,5c-0.7,2-1.2,2.2-3.4,1.5  c-1-0.3-1.9-0.6-2.9-0.9c-1.5-0.4-2.4-0.1-2.9,1.5c-3,9.9-6.1,19.8-9.2,29.6c-0.5,1.5-0.1,2.3,1.4,2.6c0,0,0.1,0,0.2,0.1  c5.4,1.6,5,1.8,3.3,6.8c-1.6,4.8-1.8,5-6.6,3.4c-5-1.7-10.1-3.4-15.2-4.9c-1.8-0.5-2.2-1.5-1.7-3.2c0.5-1.5,0.9-3,1.4-4.5  c0.8-2.8,0.9-2.9,3.8-2.1c1,0.3,1.9,0.6,2.9,0.8c0.2-0.2,0.3-0.4,0.5-0.7c-6.3-9.9-13-19.7-20.4-29.8c-0.3,0.9-0.6,1.4-0.7,1.9  c-1.6,6.5-3.1,13.1-4.8,19.6c-0.4,1.6,0.2,2.2,1.6,2.5c1.2,0.3,2.4,0.7,3.6,1c1.6,0.4,2.1,1.5,1.7,3c-0.6,2-1.2,4.1-2,6.1  c-0.2,0.5-1.3,1.1-1.8,1c-6.5-1.6-12.9-3.1-19.4-4.6c-0.6-0.1-1.4-1.5-1.3-2.2c0.2-2.1,0.8-4.2,1.2-6.3c0.3-1.2,1-1.6,2.2-1.6  c0.3,0,0.6,0.1,0.9,0.1c4.4,0.8,4.4,0.8,5.4-3.6c2.1-9.2,4.1-18.5,6.3-27.7c0.4-1.6-0.1-2.4-1.7-2.7c-5.9-1.1-4.7-1.2-3.8-5.8  c0.2-1.2,0.5-2.3,0.8-3.5c0.2-1.2,0.9-1.7,2.2-1.4c6.8,1.5,13.6,3,20.3,4.7c2.2,0.6,2.6,1.3,2.1,3.3c-0.4,1.6-0.8,3.3-1.3,4.9  c-0.5,1.9-1.3,2.3-3.3,1.8c-1.3-0.3-2.7-0.6-4-0.8c-0.2,0-0.4,0.1-1,0.4C490.7,154,497.6,164,504.4,174.5"/>
<path class="st1" d="M381.7,116.8c5.6,0.4,11.3,0.9,16.9,1.4c5.1,0.5,7.6,3.6,7.1,8.3c-0.3,2.9-0.7,5.8-0.9,8.6  c-0.2,1.7-1.1,2.5-2.9,2.3c-0.2,0-0.5-0.1-0.8-0.1c-4.5-0.4-4.6-0.6-4.3-4.8c0.3-3.2-0.4-4-3.8-4.4c-7.8-0.7-15.7-1.3-23.5-1.7  c-2.5-0.1-3.3,0.6-3.4,3c-0.1,2.3-0.2,4.5-0.3,6.8c-0.1,2.4,0.6,3.2,3.1,3.3c9,0.5,18.1,1.3,27.1,2c3.9,0.3,8,3.8,7.2,8.7  c-0.9,5.9-1.4,11.9-2.1,17.8c-0.4,4-3.7,6.8-7.5,6.4c-10.3-1-20.7-1.7-31.1-2.3c-3.8-0.2-6.7-3.6-6.6-8c0-3.5,0.4-7,0.6-10.5  c0.1-1.5,0.9-2.2,2.5-2.1c6,0.2,5.8,0,5.5,5.8c-0.2,3.5,0.6,4.3,3.9,4.4c6.9,0.5,13.9,1.1,20.8,1.8c3.6,0.4,4.7-0.6,5.1-4.3  c0.2-2.3,0.5-4.6,0.7-7c0.2-2.7-0.5-3.5-3.2-3.8c-8.9-0.8-17.8-1.6-26.8-1.8c-5.3-0.1-8.4-3.4-8.2-8.7c0.1-4.8,0.3-9.6,0.5-14.4  c0.1-2.2,0.6-4.4,2.4-6c1.4-1.4,3.1-2,5.2-1.9C370.3,116.1,376,116.4,381.7,116.8"/>
<path class="st1" d="M251.7,166.6c-1.3-1.7-2.5-3.4-3.9-5c-0.3-0.4-1.2-0.4-1.7-0.3c-6.1,0.8-12.2,1.8-18.3,2.8  c-1.8,0.3-2.9,1.2-3.3,2.9c-0.4,1.6-0.9,3.1-1.6,5.2c2.1-0.4,3.4-0.7,4.8-0.9c2.5-0.4,3.1,0,3.6,2.5c0.3,1.6,0.5,3.2,0.9,4.8  c0.4,1.8-0.3,2.8-1.8,3.1c-6.5,1.2-13,2.4-19.5,3.6c-0.5,0.1-1.6-0.7-1.8-1.3c-0.7-2.1-1.1-4.4-1.6-6.6c-0.3-1.4,0.5-2.2,1.6-2.3  c3.7-0.1,4.7-2.4,5.6-5.5c3.1-10.5,6.7-20.9,10.4-31.3c0.2-0.6,0.4-1.3,0.7-2.4c-1.6,0.3-2.8,0.5-4.1,0.7c-1.9,0.4-2.8-0.2-3.2-2  c-0.4-1.8-0.7-3.7-1.1-5.6c-0.3-1.6,0.3-2.5,2.1-2.8c7-1.3,14.1-2.5,21.1-3.6c1.5-0.2,2.3,0.3,2.5,1.7c0.3,2.2,0.6,4.4,0.9,6.6  c0.2,1.4-0.5,2.1-1.9,2.3c-1.6,0.3-3.2,0.5-5.2,0.8c0.5,0.8,0.7,1.5,1.2,2c7.9,9.4,15.5,18.9,22.8,28.6c0.7,1,1.5,1.2,2.7,1.1  c5.1-0.7,5.1-0.6,5.7,4.6c0.6,5.4,0.6,5.3-4.6,6c-5.2,0.7-10.4,1.4-15.6,2.2c-2.4,0.4-3.1-0.1-3.5-2.6c-0.3-1.7-0.4-3.4-0.7-5  c-0.3-1.6,0.4-2.5,2-2.8c1.5-0.3,2.9-0.5,4.4-0.7C251.5,167.1,251.6,166.8,251.7,166.6 M234.9,155.7L234.9,155.7  c1.8-0.3,3.5-0.5,5.3-0.9c1.6-0.4,1.9-1.2,0.9-2.4c-2.2-2.7-4.5-5.3-6.7-8c-0.9-1.1-1.8-1-2.3,0.3c-1.3,3.4-2.6,6.8-3.8,10.1  c-0.5,1.4,0.2,1.9,1.5,1.8C231.5,156.4,233.2,156,234.9,155.7"/>
<path class="st1" d="M410.9,147.9c0.8-6.7,1.8-13.5,2.5-20.3c0.4-3.8,4.1-7.4,9-6.6c10.7,1.7,21.4,3.3,32.1,5.3c5.2,1,8,4.6,7,9.4  c-2.6,13.2-5.3,26.3-8.1,39.5c-0.9,4.3-4.2,7.4-9.4,6.3c-9.7-2.1-19.5-3.7-29.4-4.8c-4.1-0.5-6.8-4.5-6.2-8.4  C409.3,161.6,410.1,154.8,410.9,147.9 M449.4,154.1c0.9-4.6,1.8-9.1,2.6-13.7c0.6-2.8-0.3-4-3.2-4.5c-7.7-1.4-15.4-2.7-23.1-3.8  c-3.4-0.5-4.5,0.4-5,3.6c-1,7.1-2,14.2-2.9,21.3c-0.3,2.1-0.7,4.3-0.9,6.4c-0.2,2.1,0.6,3.6,2.4,3.9c7.6,1.2,15.2,2.6,22.8,4  c2.9,0.5,4.2-0.5,4.7-3.4C447.7,163.2,448.5,158.6,449.4,154.1"/>
<path class="st1" d="M181.8,193c-6.2,1.8-12.3,3.6-18.5,5.5c-2.8,0.9-3.7,0.4-4.6-2.4c-0.4-1.3-0.9-2.6-1.3-4  c-0.4-1.4,0-2.3,1.4-2.8c0.1,0,0.2-0.1,0.4-0.1c5.7-1.7,4.7-1.6,3.2-6.5c-2.8-9-5.6-18-8.4-27.1c-0.7-2.3-0.8-2.4-3.4-1.6  c-5.5,1.9-5.4,1.8-7.1-3.4c-1.6-5.1-1.9-4.7,3.6-6.5c5.8-1.8,11.7-3.6,17.6-5.2c2.5-0.7,3-0.5,3.6,1.8c0.5,1.7,1,3.5,1.5,5.3  c0.4,1.4-0.3,2.4-1.7,2.8c-1.2,0.4-2.4,0.8-3.7,1c-1.7,0.4-2.1,1.2-1.6,2.8c1.5,5,2.9,10,4.4,15.1s3,10,4.4,15.1  c0.5,1.7,1.2,2,2.8,1.5c5.6-1.7,11.2-3.2,16.9-4.6c1.7-0.4,2.2-1.1,1.7-2.8c-0.6-2.2-1.1-4.4-1.7-6.6c-0.5-1.7,0.2-2.6,1.8-3.2  c0.2-0.1,0.4-0.1,0.6-0.1c4.5-1.2,4.6-1.2,5.6,3.2c1.1,4.7,2.3,9.4,3.4,14.1c0.6,2.3,0.1,3.1-2.2,3.6  C194.3,189.6,188.1,191.3,181.8,193"/>
<path class="st1" d="M507.8,481.4c-0.2-1.1-0.2-1.7-0.4-2.3c-1.8-6.2-3.5-12.4-5.3-18.6c-0.6-2.2-0.9-2.4-3.2-1.8  c-5.4,1.4-5,1.9-6.5-3.6c-1.4-5.4-1.8-4.7,3.6-6.2c5.1-1.4,10.2-2.8,15.3-4.3c2.1-0.6,2.6-0.4,3.2,1.7c0.5,1.7,1,3.3,1.6,5  c0.6,2,0.4,2.4-1.7,3.1c-0.9,0.3-1.8,0.5-2.7,0.8c-1.3,0.5-1.9,1.2-1.4,2.8c2.9,9.7,5.9,19.4,8.7,29.1c0.4,1.5,1.3,1.9,2.7,1.3  c0.1,0,0.1,0,0.2-0.1c5.7-1.8,5.4-1.5,6.9,3.5c1.5,4.8,1.4,5-3.9,6.5c-5.5,1.6-11.2,2.9-16.7,4.4c-2.1,0.5-2.9-0.1-3.3-1.8  c-0.4-1.5-0.7-3-1.1-4.5c-0.8-2.8-0.7-2.9,2.4-3.7c1-0.3,2.1-0.6,3.1-0.8c0-0.3,0.1-0.6,0.1-0.8c-11-4.9-21.8-10-32.6-15.6  c0.1,0.9,0.1,1.4,0.2,1.9c1.5,6.4,3,12.8,4.5,19.3c0.3,1.6,1.1,1.8,2.6,1.4c1.3-0.3,2.6-0.5,3.9-0.8c1.7-0.4,2.7,0.3,3.1,1.8  c0.4,2,0.9,4.1,1.1,6.2c0,0.6-0.7,1.6-1.3,1.7c-7,1.7-14.1,3.3-21.3,4.6c-0.7,0.1-2-0.7-2.2-1.4c-0.7-2-0.9-4.1-1.4-6.1  c-0.3-1.2,0.3-1.9,1.5-2.3c0.3-0.1,0.6-0.2,0.9-0.3c4.5-1.1,4.5-1.1,3.6-5.5c-2-9-4-18.1-5.9-27.1c-0.3-1.6-1-2.1-2.6-1.7  c-5.4,1.3-4.5,0.7-5.5-3.8c-0.3-1.1-0.4-2.3-0.7-3.4c-0.3-1.2,0.1-1.9,1.3-2.1c6.2-1.3,12.4-2.7,18.5-4.1c2-0.5,2.7,0,3.2,2  c0.4,1.6,0.8,3.2,1.2,4.8c0.4,1.9,0,2.6-1.9,3.1c-1.3,0.3-2.5,0.7-3.8,1c-0.2,0-0.3,0.3-0.6,0.8C485.6,471,496.3,476.3,507.8,481.4"/>
<path class="st1" d="M183.5,447.9c4.9,1.2,9.9,2.2,14.8,3.3c4.5,1,6.5,4,5.7,8.5c-0.5,2.7-1,5.5-1.6,8.2c-0.3,1.6-1.2,2.3-2.9,1.9  c-0.2-0.1-0.5-0.1-0.7-0.1c-4.2-0.8-4.3-1-3.6-5c0.6-3.1,0-3.9-3.1-4.6c-7.1-1.5-14.2-3.2-21.3-5c-2.3-0.6-3.1-0.1-3.7,2.2  c-0.5,2.1-1.1,4.2-1.6,6.3c-0.6,2.2,0,3.1,2.3,3.7c8.5,2.2,17,4.3,25.7,5.9c3.7,0.7,7.4,4.4,6.3,9c-1.3,5.6-2.2,11.2-3.3,16.9  c-0.7,3.7-4.3,6.1-8.5,5.3c-11-2.2-21.9-4.8-32.8-7.7c-4-1.1-6.3-5-5.2-9.1c0.8-3.3,1.9-6.5,2.9-9.7c0.4-1.4,1.3-1.8,2.9-1.4  c5.8,1.6,5.7,1.3,4.3,6.7c-0.9,3.2-0.2,4.1,3.1,5c7,1.8,14.1,3.6,21.2,5.2c3.7,0.8,4.9,0,5.6-3.4c0.5-2.2,0.9-4.4,1.3-6.6  c0.4-2.5-0.2-3.4-2.9-4c-8.7-1.9-17.3-4.1-26-6.2c-5.1-1.2-7.4-5-6-10c1.2-4.4,2.4-8.8,3.6-13.2c0.6-2.1,1.5-3.9,3.4-5.1  c1.6-1,3.2-1.3,5-0.8C173.5,445.5,178.5,446.7,183.5,447.9"/>
<path class="st1" d="M298.7,513.1c-1-1.9-1.8-3.8-2.9-5.6c-0.2-0.4-1.1-0.6-1.6-0.7c-6.2-0.5-12.5-1-18.7-1.7  c-1.8-0.2-3.1,0.3-4,1.8c-0.9,1.4-1.8,2.7-3,4.4c2.2,0.2,3.6,0.3,5.1,0.5c2.6,0.3,3.1,0.9,2.9,3.3c-0.1,1.6-0.3,3.2-0.4,4.8  c0,1.8-1.1,2.5-2.7,2.4c-7-0.7-14-1.3-21-2c-1.2-0.1-1.4-1.8-1.4-2.3c0.1-2.2,0.4-4.4,0.7-6.7c0.2-1.3,1.1-1.7,2.4-1.5  c1.8,0.1,4,0.3,4,0.3s2.5-2.9,3.4-4.2c6.2-8.9,12.4-17.1,18.3-26c0.4-0.6,0.7-1.1,1.2-2.1c-1.4-0.1-2.6-0.2-3.8-0.3  c-1.8-0.2-2.4-0.9-2.3-2.8c0.1-1.9,0.3-3.7,0.5-5.6c0.1-1.6,0.9-2.3,2.5-2.1c6.3,0.6,12.7,1,19,1.4c1.4,0.1,1.9,0.7,1.9,2.1  c-0.1,2.2-0.2,4.4-0.4,6.5c-0.1,1.4-0.8,2-2.1,1.9c-1.5-0.1-3-0.2-4.9-0.3c0.3,0.9,0.4,1.6,0.6,2.1c5.2,10.7,10.7,21.4,16.6,32  c0.6,1.1,1.4,1.4,2.6,1.5c5.3,0.1,5.3,0.2,5.2,5.3c-0.1,5.3-0.1,5.3-5.8,5.2c-5.6-0.2-11.2-0.4-16.9-0.7c-2.6-0.1-3.2-0.8-3-3.3  c0.1-1.7,0.3-3.3,0.4-5c0.1-1.6,1-2.3,2.6-2.3c1.5,0.1,3,0.2,4.6,0.2C298.4,513.5,298.5,513.2,298.7,513.1 M284.5,498.9L284.5,498.9  c1.8,0.1,3.5,0.3,5.3,0.3c1.6,0,2.1-0.7,1.4-2.1c-1.5-3.1-3.1-6.1-4.5-9.2c-0.6-1.3-1.4-1.4-2.2-0.2c-2,2.9-4,5.8-6,8.7  c-0.8,1.2-0.3,1.9,1,2.1C281.1,498.7,282.8,498.8,284.5,498.9"/>
<path class="st1" d="M410.7,493.1c-0.8-6.6-1.5-13.2-2.4-19.8c-0.5-3.7,1.9-7.9,6.4-8.4c9.8-1,19.5-2.6,29.2-4.4  c4.7-0.8,8.4,1.4,9.3,6.2c2.6,12.9,5.2,25.7,7.7,38.6c0.8,4.2-1.3,8.3-7.1,9.2c-10.7,1.7-21.4,3.3-32.1,4.9  c-4.5,0.6-8.3-2.5-8.7-6.4C412.4,506.5,411.5,499.8,410.7,493.1 M449,487.7c-0.8-4.5-1.6-8.9-2.5-13.4c-0.5-2.8-1.6-3.5-4.4-3  c-7.2,1.2-14.5,2.3-21.8,3.3c-3.2,0.4-4,1.5-3.6,4.7c0.9,6.9,1.9,13.9,2.8,20.9c0.3,2.1,0.5,4.1,0.9,6.2c0.4,2.1,1.6,3.2,3.5,3  c8.1-0.9,16.2-2.1,24.2-3.4c3.1-0.5,3.9-1.9,3.4-4.8C450.7,496.6,449.9,492.1,449,487.7"/>
<path class="st1" d="M329.3,525.2c-1.7,0-3.1-1.3-3.1-3v-5.4c0-1.6,1.4-3,3.1-3h4.1v-31.4h-11.1v8.2c0,1.8-1.4,3.2-3.2,3.2h-3.8  c-1.7,0-3.2-1.4-3.2-3.2v-16.3c0-1.8,1.4-3.2,3.2-3.2h48.4c1.8,0,3.2,1.5,3.2,3.2v16.3c0,1.8-1.4,3.2-3.2,3.2h-3.8  c-1.8,0-3.2-1.4-3.2-3.2v-8.2h-12.1v31.3l0.3,0.1h4c1.7,0,3.1,1.3,3.1,3v5.4c0,1.7-1.4,3-3.1,3H329.3z"/>
<path class="st1" d="M237.5,516.9c-0.2,0-0.4,0-0.6-0.1l-19.3-3.7c-1.6-0.3-2.7-1.9-2.4-3.6l1-5.5c0.3-1.5,1.5-2.5,3-2.5  c0.2,0,0.4,0,0.6,0l4.1,0.8l5.9-31.7l-10.9-2.1l-1.5,8.3c-0.3,1.6-1.6,2.7-3.2,2.7c-0.2,0-0.4,0-0.6,0l-3.8-0.7  c-1.7-0.3-2.8-2-2.5-3.8l3.1-16.5c0.3-1.6,1.6-2.7,3.1-2.7c0.2,0,0.4,0,0.6,0.1l47.5,9.1c1.7,0.3,2.8,2.1,2.5,3.9l-3.1,16.5  c-0.3,1.6-1.6,2.7-3.1,2.7c-0.2,0-0.4,0-0.6-0.1l-3.7-0.7c-1.7-0.3-2.8-2.1-2.5-3.8l1.5-8.3l-11.9-2.3l-5.9,31.6l0.3,0.1l3.9,0.7  c1.6,0.3,2.7,1.9,2.4,3.6l-1,5.5C240.2,515.8,238.9,516.9,237.5,516.9"/>
<path class="st1" d="M379.5,522.9c-1.5-0.1-2.7-1.3-2.8-2.7l-0.4-5.4c-0.1-1.3,0.7-2.5,1.9-3l0.2,0c0.3-0.1,0.5-0.1,0.7-0.1l4.1-0.3  l-2.3-30.8l-4.1,0.3l-0.2,0c-1.6,0-2.9-1.2-3-2.8l-0.4-5.4c-0.1-1.6,1.1-3,2.8-3.2l19.9-1.5l0.1,0c1.5,0.1,2.7,1.2,2.8,2.7l0.4,5.3  c0.1,1.3-0.7,2.5-1.9,3l-0.1,0.1c-0.3,0.1-0.5,0.1-0.7,0.1l-4.1,0.3l2.3,30.8l4.1-0.3h0.3c1.6,0,2.9,1.2,3,2.7l0.4,5.4  c0.1,1.6-1.1,3-2.8,3.1L379.5,522.9L379.5,522.9z"/>
</svg>