<?xml version="1.0" encoding="UTF-8"?>
<svg enable-background="new 0 0 652 652" version="1.1" viewBox="87 71.93 498.3 500.06" xml:space="preserve" xmlns="http://www.w3.org/2000/svg">
  <style type="text/css">
    .st0 {
      fill-rule: evenodd;
      clip-rule: evenodd;
      fill: #1972B1;
    }

    .st1 {
      fill-rule: evenodd;
      clip-rule: evenodd;
      fill: #FFFFFF;
    }
  </style>
  <path class="st0" d="m584.3 523.1c-165.3 65.2-330.7 65.3-497.3-0.4 6-19.2 11.7-37.6 17.4-55.8 14.3-46.3 28.8-92.6 42.8-139 1.2-4.1 0.9-9.3-0.4-13.5-19.4-63.1-39.1-126-58.7-189.1-0.3-0.8-0.3-1.7-0.7-4.1 165.6-65.7 331.1-65.7 497.9 0-5.4 17.3-10.5 33.9-15.6 50.5-14.7 47.1-29.6 94.1-43.7 141.4-1.8 6.1-1 13.8 0.9 20.1 19 62.3 38.4 124.4 57.7 186.6 0.2 0.6-0.1 1.2-0.3 3.3m-14.1-394.6c-156.5-58.9-311.9-58.9-467.7-0.1 0.6 2.9 0.7 4.4 1.1 5.8 18.4 59.1 36.9 118.2 54.9 177.4 1.8 6 2.3 13.4 0.5 19.4-14.2 47.5-29.2 94.9-43.9 142.3-4.3 13.8-8.5 27.7-12.9 41.9 85.8 33.9 173.8 48 264.6 43.8 69.9-3.2 137.7-17.5 202.9-43.9-0.4-2.1-0.5-3.6-0.9-4.9-18.8-60.5-37.6-121-56.2-181.6-1.1-3.7-1.7-8.3-0.6-11.9 11.6-38.2 23.7-76.4 35.6-114.5 7.5-24.1 14.9-48.4 22.6-73.7" />
  <path class="st1" d="m570.2 128.5c-7.8 25.3-15.1 49.6-22.7 73.7-11.9 38.2-23.9 76.3-35.5 114.5-1.1 3.6-0.6 8.2 0.6 11.9 18.6 60.6 37.4 121.1 56.2 181.6 0.4 1.3 0.5 2.8 0.9 4.9-65.2 26.4-133 40.6-202.9 43.9-90.8 4.2-178.8-9.9-264.5-43.9 4.4-14.2 8.6-28.1 12.9-41.9 14.7-47.4 29.7-94.7 43.9-142.3 1.8-5.9 1.3-13.4-0.5-19.4-18-59.2-36.6-118.3-54.9-177.4-0.4-1.4-0.5-2.9-1.1-5.8 155.7-58.7 311.1-58.7 467.6 0.2m-456.6 5.3c0.5 2.5 0.7 4 1.1 5.3 18.1 58.3 36.2 116.5 54.1 174.9 1.3 4.4 1.9 9.9 0.6 14.2-8.5 28.8-17.7 57.5-26.6 86.2-9.8 31.4-19.5 62.9-29.5 95.2 66.8 25.8 135.6 39 206.5 40.8 82.1 2.1 161.7-11 238.9-40.6-0.6-2.1-0.9-3.5-1.3-4.8-18.3-59.1-36.6-118.2-54.8-177.4-1-3.1-1.2-6.9-0.3-9.9 14.2-46.4 28.6-92.6 42.9-138.9 4.6-14.7 9-29.3 13.8-44.8-149.1-54.1-297-54.1-445.4-0.2" />
  <path class="st0" d="m502.7 327.5c-1-3.1-1.2-6.9-0.3-9.9 14.2-46.4 28.6-92.6 42.9-138.9 4.6-14.7 9-29.3 13.8-44.8-149.2-54-297.1-54-445.5 0 0.6 2.5 0.7 4 1.1 5.3 18.1 58.3 36.2 116.5 54.1 174.9 1.3 4.4 1.9 9.9 0.6 14.2-8.5 28.8-17.7 57.5-26.6 86.2-9.8 31.4-19.5 62.9-29.5 95.2 66.8 25.8 135.6 39 206.5 40.8 82.1 2 161.7-11 238.9-40.6-0.6-2.1-0.9-3.5-1.3-4.9-18.2-59.2-36.6-118.3-54.7-177.5" />
  <path class="st1" d="m301.4 258.2c-16.4-0.9-16-0.8-12.4-18.5 0.9-4.3-1.8-9.6-3.7-14.1-9.7-23.1-4.8-29 20.3-31.9 23.6-2.8 47.3-3.2 70.7 1.7 15.3 3.2 18.2 9.1 13 23.8-1.7 4.7-3.7 9.3-4.7 14.1-0.7 3.1 0.3 6.4 0.4 9.7 0.1 4.3 1.1 9.2-0.6 12.7-0.9 1.8-6.8 1.2-10.4 1.6-1 0.1-2.1 0.4-3.1 0.6-0.9 1.1-1.9 2.2-2.8 3.4 2.6 1.2 5.6 2 7.8 3.7 15.3 12.5 22.2 29.4 22.5 48.5 0.6 38 0.3 76.1 0.2 114.2 0 12.3-4.4 20-16.7 20.9-25 1.8-49.7 1.3-75.1 0.8-6.3 0.1-12.8-1.3-19.1-2.4-8.8-1.5-13.8-7.6-13.7-15.8 0.2-43 0.4-86 1.7-128.9 0.5-14.5 8.4-26.6 19.5-36.1 2.5-2.2 5.9-3.5 8.8-5.2-0.9-1.1-1.7-1.9-2.6-2.8m71.1-7.6c4.8-13.6 9.5-26.1 13.6-38.8 1.9-6-1.6-9.7-7.2-10.8-28.4-5.7-56.9-5.9-85.2 0.3-3 0.7-7.7 6.5-7.1 8.7 3.7 13.5 8.6 26.7 13.4 40.7 8.7-5.9 9-13.1 9-20.5 0.1-11.7 0.1-11.9 12-12 10.8-0.2 21.6 0.4 32.5-0.1 7.9-0.3 11.2 2.2 10.3 10.5-1.1 7.9-0.6 15.9 8.7 22m-59 5.3h45.9c-7.7-5.1-39.8-4.9-45.9 0" />
  <path class="st1" d="m288 152.7c3.2-8.5 6.6-17 10.4-26-2 0.1-3.4 0.2-4.7 0.3-1.8 0.1-2.7-0.6-2.8-2.3-0.1-1.9-0.3-3.8-0.4-5.7-0.1-1.5 0.5-2.3 2.1-2.4 7.2-0.5 14.4-0.9 21.5-1.2 1.6 0 2.3 0.6 2.3 2.2 0 2 0.1 4 0.2 6 0.1 1.5-0.6 2.2-2.2 2.3-1 0-2.1 0-3.2 0.1-1.8 0.1-2.1 0.5-1.2 2.1 2.4 4.4 4.8 8.9 7.2 13.4 1.4 2.6 2.7 5.1 4 7.7 0.3 0.6 0.6 1.1 1.2 2.1 0.5-0.9 0.9-1.4 1.2-2 3.6-7.2 7.3-14.4 11.1-21.6 1-2 0.9-2.2-1.5-2.2h-3.4c-1.5 0-2.4-0.6-2.4-2.1-0.1-2.1-0.1-4.1-0.1-6.2 0-1.3 0.7-2 2.1-2 7.3-0.1 14.6 0 21.9 0.1 1.6 0 2.2 1 2.2 2.2 0.1 2.1 0 4.2-0.1 6.2-0.1 1.3-0.9 2-2.4 2-6-0.2-4.7-0.8-7.7 4.5-5.3 9.2-10.2 18.7-14.9 28.1-1.2 2.4-1 2.7 1.6 2.7 4.6 0 4.6 0 4.6 4.5v3.8c0.1 1.6-0.8 2.3-2.2 2.4-6.3 0.1-12.6 0.2-18.9 0.4-1.9 0.1-2.6-0.7-2.8-2.7-0.1-1.8-0.2-3.7-0.3-5.5-0.1-1.7 0.7-2.4 2.3-2.5 0.8 0 1.6-0.1 2.4 0 2 0.1 2.4-0.4 1.5-2.2-3.2-6.1-6.4-12.2-9.8-18.3-0.7-1.3-1.6-2.7-2.3-4h-0.6c-3.6 8.4-7 16.8-10.5 25.7 1.6-0.1 2.7-0.2 3.8-0.3 3.1-0.1 3.6 0.3 3.8 3.4 0.1 1.2 0.1 2.5 0.2 3.8 0.1 2.4-0.5 3.3-2.8 3.4l-19.2 1.2c-0.6 0-1.6-0.8-1.8-1.4-0.4-2.2-0.6-4.5-0.7-6.8-0.1-1.3 0.7-2 1.9-2.1 1.1-0.1 2.2-0.3 3.3-0.3 1.3-0.1 1.6-0.6 0.9-1.8-2.1-3.3-4.2-6.6-6.3-9.8-4.3-6.5-8.7-12.9-13.1-19.3-1.2-1.8-2.6-2.7-4.9-2.1-0.6 0.2-1.3 0.3-2 0.2-1.2 0-2.2-0.5-2.4-1.8-0.3-2.1-0.6-4.3-0.8-6.4-0.2-1.3 0.4-1.9 1.7-2.1 7.3-0.9 14.7-1.8 22.1-2.3 0.6 0 1.9 0.9 1.9 1.5 0.4 2.3 0.6 4.6 0.6 7 0 0.6-1.1 1.5-1.9 1.7-1.2 0.4-2.6 0.3-3.9 0.5-2 0.2-2.2 0.6-1.1 2.2 3.5 5.3 7.1 10.5 10.5 15.9 1.3 2 2.6 4 3.8 5.9 0.6 0 0.8 0 1-0.1" />
  <path class="st1" d="m504.4 174.5c0.4-1.1 0.7-1.6 0.9-2.2 1.9-6.3 3.8-12.7 5.6-19 0.6-2.2 0.4-2.5-1.9-3.2-5.7-1.7-5.6-1-4-6.6 1.6-5.5 0.9-5.1 6.7-3.5 5.6 1.6 11.2 3.3 16.7 5.1 2.3 0.7 2.6 1.2 1.9 3.4-0.6 1.7-1.1 3.4-1.6 5-0.7 2-1.2 2.2-3.4 1.5-1-0.3-1.9-0.6-2.9-0.9-1.5-0.4-2.4-0.1-2.9 1.5-3 9.9-6.1 19.8-9.2 29.6-0.5 1.5-0.1 2.3 1.4 2.6 0 0 0.1 0 0.2 0.1 5.4 1.6 5 1.8 3.3 6.8-1.6 4.8-1.8 5-6.6 3.4-5-1.7-10.1-3.4-15.2-4.9-1.8-0.5-2.2-1.5-1.7-3.2 0.5-1.5 0.9-3 1.4-4.5 0.8-2.8 0.9-2.9 3.8-2.1 1 0.3 1.9 0.6 2.9 0.8 0.2-0.2 0.3-0.4 0.5-0.7-6.3-9.9-13-19.7-20.4-29.8-0.3 0.9-0.6 1.4-0.7 1.9-1.6 6.5-3.1 13.1-4.8 19.6-0.4 1.6 0.2 2.2 1.6 2.5 1.2 0.3 2.4 0.7 3.6 1 1.6 0.4 2.1 1.5 1.7 3-0.6 2-1.2 4.1-2 6.1-0.2 0.5-1.3 1.1-1.8 1-6.5-1.6-12.9-3.1-19.4-4.6-0.6-0.1-1.4-1.5-1.3-2.2 0.2-2.1 0.8-4.2 1.2-6.3 0.3-1.2 1-1.6 2.2-1.6 0.3 0 0.6 0.1 0.9 0.1 4.4 0.8 4.4 0.8 5.4-3.6 2.1-9.2 4.1-18.5 6.3-27.7 0.4-1.6-0.1-2.4-1.7-2.7-5.9-1.1-4.7-1.2-3.8-5.8 0.2-1.2 0.5-2.3 0.8-3.5 0.2-1.2 0.9-1.7 2.2-1.4 6.8 1.5 13.6 3 20.3 4.7 2.2 0.6 2.6 1.3 2.1 3.3-0.4 1.6-0.8 3.3-1.3 4.9-0.5 1.9-1.3 2.3-3.3 1.8-1.3-0.3-2.7-0.6-4-0.8-0.2 0-0.4 0.1-1 0.4 7.6 10.2 14.5 20.2 21.3 30.7" />
  <path class="st1" d="m381.7 116.8c5.6 0.4 11.3 0.9 16.9 1.4 5.1 0.5 7.6 3.6 7.1 8.3-0.3 2.9-0.7 5.8-0.9 8.6-0.2 1.7-1.1 2.5-2.9 2.3-0.2 0-0.5-0.1-0.8-0.1-4.5-0.4-4.6-0.6-4.3-4.8 0.3-3.2-0.4-4-3.8-4.4-7.8-0.7-15.7-1.3-23.5-1.7-2.5-0.1-3.3 0.6-3.4 3-0.1 2.3-0.2 4.5-0.3 6.8-0.1 2.4 0.6 3.2 3.1 3.3 9 0.5 18.1 1.3 27.1 2 3.9 0.3 8 3.8 7.2 8.7-0.9 5.9-1.4 11.9-2.1 17.8-0.4 4-3.7 6.8-7.5 6.4-10.3-1-20.7-1.7-31.1-2.3-3.8-0.2-6.7-3.6-6.6-8 0-3.5 0.4-7 0.6-10.5 0.1-1.5 0.9-2.2 2.5-2.1 6 0.2 5.8 0 5.5 5.8-0.2 3.5 0.6 4.3 3.9 4.4 6.9 0.5 13.9 1.1 20.8 1.8 3.6 0.4 4.7-0.6 5.1-4.3 0.2-2.3 0.5-4.6 0.7-7 0.2-2.7-0.5-3.5-3.2-3.8-8.9-0.8-17.8-1.6-26.8-1.8-5.3-0.1-8.4-3.4-8.2-8.7 0.1-4.8 0.3-9.6 0.5-14.4 0.1-2.2 0.6-4.4 2.4-6 1.4-1.4 3.1-2 5.2-1.9 5.4 0.5 11.1 0.8 16.8 1.2" />
  <path class="st1" d="m251.7 166.6c-1.3-1.7-2.5-3.4-3.9-5-0.3-0.4-1.2-0.4-1.7-0.3-6.1 0.8-12.2 1.8-18.3 2.8-1.8 0.3-2.9 1.2-3.3 2.9-0.4 1.6-0.9 3.1-1.6 5.2 2.1-0.4 3.4-0.7 4.8-0.9 2.5-0.4 3.1 0 3.6 2.5 0.3 1.6 0.5 3.2 0.9 4.8 0.4 1.8-0.3 2.8-1.8 3.1l-19.5 3.6c-0.5 0.1-1.6-0.7-1.8-1.3-0.7-2.1-1.1-4.4-1.6-6.6-0.3-1.4 0.5-2.2 1.6-2.3 3.7-0.1 4.7-2.4 5.6-5.5 3.1-10.5 6.7-20.9 10.4-31.3 0.2-0.6 0.4-1.3 0.7-2.4-1.6 0.3-2.8 0.5-4.1 0.7-1.9 0.4-2.8-0.2-3.2-2s-0.7-3.7-1.1-5.6c-0.3-1.6 0.3-2.5 2.1-2.8 7-1.3 14.1-2.5 21.1-3.6 1.5-0.2 2.3 0.3 2.5 1.7l0.9 6.6c0.2 1.4-0.5 2.1-1.9 2.3-1.6 0.3-3.2 0.5-5.2 0.8 0.5 0.8 0.7 1.5 1.2 2 7.9 9.4 15.5 18.9 22.8 28.6 0.7 1 1.5 1.2 2.7 1.1 5.1-0.7 5.1-0.6 5.7 4.6 0.6 5.4 0.6 5.3-4.6 6s-10.4 1.4-15.6 2.2c-2.4 0.4-3.1-0.1-3.5-2.6-0.3-1.7-0.4-3.4-0.7-5s0.4-2.5 2-2.8c1.5-0.3 2.9-0.5 4.4-0.7 0.2-0.3 0.3-0.6 0.4-0.8m-16.8-10.9c1.8-0.3 3.5-0.5 5.3-0.9 1.6-0.4 1.9-1.2 0.9-2.4-2.2-2.7-4.5-5.3-6.7-8-0.9-1.1-1.8-1-2.3 0.3-1.3 3.4-2.6 6.8-3.8 10.1-0.5 1.4 0.2 1.9 1.5 1.8 1.7-0.2 3.4-0.6 5.1-0.9" />
  <path class="st1" d="m410.9 147.9c0.8-6.7 1.8-13.5 2.5-20.3 0.4-3.8 4.1-7.4 9-6.6 10.7 1.7 21.4 3.3 32.1 5.3 5.2 1 8 4.6 7 9.4-2.6 13.2-5.3 26.3-8.1 39.5-0.9 4.3-4.2 7.4-9.4 6.3-9.7-2.1-19.5-3.7-29.4-4.8-4.1-0.5-6.8-4.5-6.2-8.4 0.9-6.7 1.7-13.5 2.5-20.4m38.5 6.2c0.9-4.6 1.8-9.1 2.6-13.7 0.6-2.8-0.3-4-3.2-4.5-7.7-1.4-15.4-2.7-23.1-3.8-3.4-0.5-4.5 0.4-5 3.6-1 7.1-2 14.2-2.9 21.3-0.3 2.1-0.7 4.3-0.9 6.4s0.6 3.6 2.4 3.9c7.6 1.2 15.2 2.6 22.8 4 2.9 0.5 4.2-0.5 4.7-3.4 0.9-4.7 1.7-9.3 2.6-13.8" />
  <path class="st1" d="m181.8 193c-6.2 1.8-12.3 3.6-18.5 5.5-2.8 0.9-3.7 0.4-4.6-2.4-0.4-1.3-0.9-2.6-1.3-4s0-2.3 1.4-2.8c0.1 0 0.2-0.1 0.4-0.1 5.7-1.7 4.7-1.6 3.2-6.5-2.8-9-5.6-18-8.4-27.1-0.7-2.3-0.8-2.4-3.4-1.6-5.5 1.9-5.4 1.8-7.1-3.4-1.6-5.1-1.9-4.7 3.6-6.5 5.8-1.8 11.7-3.6 17.6-5.2 2.5-0.7 3-0.5 3.6 1.8 0.5 1.7 1 3.5 1.5 5.3 0.4 1.4-0.3 2.4-1.7 2.8-1.2 0.4-2.4 0.8-3.7 1-1.7 0.4-2.1 1.2-1.6 2.8 1.5 5 2.9 10 4.4 15.1s3 10 4.4 15.1c0.5 1.7 1.2 2 2.8 1.5 5.6-1.7 11.2-3.2 16.9-4.6 1.7-0.4 2.2-1.1 1.7-2.8-0.6-2.2-1.1-4.4-1.7-6.6-0.5-1.7 0.2-2.6 1.8-3.2 0.2-0.1 0.4-0.1 0.6-0.1 4.5-1.2 4.6-1.2 5.6 3.2 1.1 4.7 2.3 9.4 3.4 14.1 0.6 2.3 0.1 3.1-2.2 3.6-6.2 1.7-12.4 3.4-18.7 5.1" />
  <path class="st1" d="m507.8 481.4c-0.2-1.1-0.2-1.7-0.4-2.3-1.8-6.2-3.5-12.4-5.3-18.6-0.6-2.2-0.9-2.4-3.2-1.8-5.4 1.4-5 1.9-6.5-3.6-1.4-5.4-1.8-4.7 3.6-6.2 5.1-1.4 10.2-2.8 15.3-4.3 2.1-0.6 2.6-0.4 3.2 1.7 0.5 1.7 1 3.3 1.6 5 0.6 2 0.4 2.4-1.7 3.1-0.9 0.3-1.8 0.5-2.7 0.8-1.3 0.5-1.9 1.2-1.4 2.8 2.9 9.7 5.9 19.4 8.7 29.1 0.4 1.5 1.3 1.9 2.7 1.3 0.1 0 0.1 0 0.2-0.1 5.7-1.8 5.4-1.5 6.9 3.5 1.5 4.8 1.4 5-3.9 6.5-5.5 1.6-11.2 2.9-16.7 4.4-2.1 0.5-2.9-0.1-3.3-1.8-0.4-1.5-0.7-3-1.1-4.5-0.8-2.8-0.7-2.9 2.4-3.7 1-0.3 2.1-0.6 3.1-0.8 0-0.3 0.1-0.6 0.1-0.8-11-4.9-21.8-10-32.6-15.6 0.1 0.9 0.1 1.4 0.2 1.9 1.5 6.4 3 12.8 4.5 19.3 0.3 1.6 1.1 1.8 2.6 1.4 1.3-0.3 2.6-0.5 3.9-0.8 1.7-0.4 2.7 0.3 3.1 1.8 0.4 2 0.9 4.1 1.1 6.2 0 0.6-0.7 1.6-1.3 1.7-7 1.7-14.1 3.3-21.3 4.6-0.7 0.1-2-0.7-2.2-1.4-0.7-2-0.9-4.1-1.4-6.1-0.3-1.2 0.3-1.9 1.5-2.3 0.3-0.1 0.6-0.2 0.9-0.3 4.5-1.1 4.5-1.1 3.6-5.5-2-9-4-18.1-5.9-27.1-0.3-1.6-1-2.1-2.6-1.7-5.4 1.3-4.5 0.7-5.5-3.8-0.3-1.1-0.4-2.3-0.7-3.4-0.3-1.2 0.1-1.9 1.3-2.1 6.2-1.3 12.4-2.7 18.5-4.1 2-0.5 2.7 0 3.2 2l1.2 4.8c0.4 1.9 0 2.6-1.9 3.1-1.3 0.3-2.5 0.7-3.8 1-0.2 0-0.3 0.3-0.6 0.8 10.4 5.5 21.1 10.8 32.6 15.9" />
  <path class="st1" d="m183.5 447.9c4.9 1.2 9.9 2.2 14.8 3.3 4.5 1 6.5 4 5.7 8.5-0.5 2.7-1 5.5-1.6 8.2-0.3 1.6-1.2 2.3-2.9 1.9-0.2-0.1-0.5-0.1-0.7-0.1-4.2-0.8-4.3-1-3.6-5 0.6-3.1 0-3.9-3.1-4.6-7.1-1.5-14.2-3.2-21.3-5-2.3-0.6-3.1-0.1-3.7 2.2-0.5 2.1-1.1 4.2-1.6 6.3-0.6 2.2 0 3.1 2.3 3.7 8.5 2.2 17 4.3 25.7 5.9 3.7 0.7 7.4 4.4 6.3 9-1.3 5.6-2.2 11.2-3.3 16.9-0.7 3.7-4.3 6.1-8.5 5.3-11-2.2-21.9-4.8-32.8-7.7-4-1.1-6.3-5-5.2-9.1 0.8-3.3 1.9-6.5 2.9-9.7 0.4-1.4 1.3-1.8 2.9-1.4 5.8 1.6 5.7 1.3 4.3 6.7-0.9 3.2-0.2 4.1 3.1 5 7 1.8 14.1 3.6 21.2 5.2 3.7 0.8 4.9 0 5.6-3.4 0.5-2.2 0.9-4.4 1.3-6.6 0.4-2.5-0.2-3.4-2.9-4-8.7-1.9-17.3-4.1-26-6.2-5.1-1.2-7.4-5-6-10 1.2-4.4 2.4-8.8 3.6-13.2 0.6-2.1 1.5-3.9 3.4-5.1 1.6-1 3.2-1.3 5-0.8 5.1 1.4 10.1 2.6 15.1 3.8" />
  <path class="st1" d="m298.7 513.1c-1-1.9-1.8-3.8-2.9-5.6-0.2-0.4-1.1-0.6-1.6-0.7-6.2-0.5-12.5-1-18.7-1.7-1.8-0.2-3.1 0.3-4 1.8-0.9 1.4-1.8 2.7-3 4.4 2.2 0.2 3.6 0.3 5.1 0.5 2.6 0.3 3.1 0.9 2.9 3.3-0.1 1.6-0.3 3.2-0.4 4.8 0 1.8-1.1 2.5-2.7 2.4-7-0.7-14-1.3-21-2-1.2-0.1-1.4-1.8-1.4-2.3 0.1-2.2 0.4-4.4 0.7-6.7 0.2-1.3 1.1-1.7 2.4-1.5 1.8 0.1 4 0.3 4 0.3s2.5-2.9 3.4-4.2c6.2-8.9 12.4-17.1 18.3-26 0.4-0.6 0.7-1.1 1.2-2.1-1.4-0.1-2.6-0.2-3.8-0.3-1.8-0.2-2.4-0.9-2.3-2.8s0.3-3.7 0.5-5.6c0.1-1.6 0.9-2.3 2.5-2.1 6.3 0.6 12.7 1 19 1.4 1.4 0.1 1.9 0.7 1.9 2.1-0.1 2.2-0.2 4.4-0.4 6.5-0.1 1.4-0.8 2-2.1 1.9-1.5-0.1-3-0.2-4.9-0.3 0.3 0.9 0.4 1.6 0.6 2.1 5.2 10.7 10.7 21.4 16.6 32 0.6 1.1 1.4 1.4 2.6 1.5 5.3 0.1 5.3 0.2 5.2 5.3-0.1 5.3-0.1 5.3-5.8 5.2-5.6-0.2-11.2-0.4-16.9-0.7-2.6-0.1-3.2-0.8-3-3.3 0.1-1.7 0.3-3.3 0.4-5 0.1-1.6 1-2.3 2.6-2.3 1.5 0.1 3 0.2 4.6 0.2 0.1-0.1 0.2-0.4 0.4-0.5m-14.2-14.2c1.8 0.1 3.5 0.3 5.3 0.3 1.6 0 2.1-0.7 1.4-2.1-1.5-3.1-3.1-6.1-4.5-9.2-0.6-1.3-1.4-1.4-2.2-0.2l-6 8.7c-0.8 1.2-0.3 1.9 1 2.1 1.6 0.2 3.3 0.3 5 0.4" />
  <path class="st1" d="m410.7 493.1c-0.8-6.6-1.5-13.2-2.4-19.8-0.5-3.7 1.9-7.9 6.4-8.4 9.8-1 19.5-2.6 29.2-4.4 4.7-0.8 8.4 1.4 9.3 6.2 2.6 12.9 5.2 25.7 7.7 38.6 0.8 4.2-1.3 8.3-7.1 9.2-10.7 1.7-21.4 3.3-32.1 4.9-4.5 0.6-8.3-2.5-8.7-6.4-0.6-6.5-1.5-13.2-2.3-19.9m38.3-5.4c-0.8-4.5-1.6-8.9-2.5-13.4-0.5-2.8-1.6-3.5-4.4-3-7.2 1.2-14.5 2.3-21.8 3.3-3.2 0.4-4 1.5-3.6 4.7 0.9 6.9 1.9 13.9 2.8 20.9 0.3 2.1 0.5 4.1 0.9 6.2s1.6 3.2 3.5 3c8.1-0.9 16.2-2.1 24.2-3.4 3.1-0.5 3.9-1.9 3.4-4.8-0.8-4.6-1.6-9.1-2.5-13.5" />
  <path class="st1" d="m329.3 525.2c-1.7 0-3.1-1.3-3.1-3v-5.4c0-1.6 1.4-3 3.1-3h4.1v-31.4h-11.1v8.2c0 1.8-1.4 3.2-3.2 3.2h-3.8c-1.7 0-3.2-1.4-3.2-3.2v-16.3c0-1.8 1.4-3.2 3.2-3.2h48.4c1.8 0 3.2 1.5 3.2 3.2v16.3c0 1.8-1.4 3.2-3.2 3.2h-3.8c-1.8 0-3.2-1.4-3.2-3.2v-8.2h-12.1v31.3l0.3 0.1h4c1.7 0 3.1 1.3 3.1 3v5.4c0 1.7-1.4 3-3.1 3h-19.6z" />
  <path class="st1" d="m237.5 516.9c-0.2 0-0.4 0-0.6-0.1l-19.3-3.7c-1.6-0.3-2.7-1.9-2.4-3.6l1-5.5c0.3-1.5 1.5-2.5 3-2.5h0.6l4.1 0.8 5.9-31.7-10.9-2.1-1.5 8.3c-0.3 1.6-1.6 2.7-3.2 2.7h-0.6l-3.8-0.7c-1.7-0.3-2.8-2-2.5-3.8l3.1-16.5c0.3-1.6 1.6-2.7 3.1-2.7 0.2 0 0.4 0 0.6 0.1l47.5 9.1c1.7 0.3 2.8 2.1 2.5 3.9l-3.1 16.5c-0.3 1.6-1.6 2.7-3.1 2.7-0.2 0-0.4 0-0.6-0.1l-3.7-0.7c-1.7-0.3-2.8-2.1-2.5-3.8l1.5-8.3-11.9-2.3-5.9 31.6 0.3 0.1 3.9 0.7c1.6 0.3 2.7 1.9 2.4 3.6l-1 5.5c-0.2 1.4-1.5 2.5-2.9 2.5" />
  <path class="st1" d="m379.5 522.9c-1.5-0.1-2.7-1.3-2.8-2.7l-0.4-5.4c-0.1-1.3 0.7-2.5 1.9-3h0.2c0.3-0.1 0.5-0.1 0.7-0.1l4.1-0.3-2.3-30.8-4.1 0.3h-0.2c-1.6 0-2.9-1.2-3-2.8l-0.4-5.4c-0.1-1.6 1.1-3 2.8-3.2l19.9-1.5h0.1c1.5 0.1 2.7 1.2 2.8 2.7l0.4 5.3c0.1 1.3-0.7 2.5-1.9 3l-0.1 0.1c-0.3 0.1-0.5 0.1-0.7 0.1l-4.1 0.3 2.3 30.8 4.1-0.3h0.3c1.6 0 2.9 1.2 3 2.7l0.4 5.4c0.1 1.6-1.1 3-2.8 3.1l-20.2 1.7z" />
</svg>
