<?xml version="1.0" encoding="UTF-8"?>
<svg fill-rule="evenodd" version="1.1" viewBox="0 -4.26 272.69 264.96" xml:space="preserve" xmlns="http://www.w3.org/2000/svg" xmlns:cc="http://creativecommons.org/ns#" xmlns:dc="http://purl.org/dc/elements/1.1/" xmlns:rdf="http://www.w3.org/1999/02/22-rdf-syntax-ns#">
  <metadata>
    <rdf:RDF>
      <cc:Work rdf:about="">
        <dc:format>image/svg+xml</dc:format>
        <dc:type rdf:resource="http://purl.org/dc/dcmitype/StillImage" />
      </cc:Work>
    </rdf:RDF>
  </metadata>
  <defs>
    <style type="text/css">
      .fil1 {
        fill: #008061;
        fill-rule: nonzero
      }

      .fil3 {
        fill: #ED1B2D;
        fill-rule: nonzero
      }

      .fil2 {
        fill: #F5821F;
        fill-rule: nonzero
      }

      .fil0 {
        fill: white;
        fill-rule: nonzero
      }
    </style>
  </defs>
  <g transform="translate(-14.391 -17.576)" fill-rule="nonzero">
    <polygon class="fil0" transform="matrix(.89813 0 0 .89516 15.772 15.322)" points="0 0 300.81 0 300.81 292.28 0 292.28" fill="#fff" />
    <polygon class="fil1" points="14.391 13.311 287.08 13.311 287.08 278.27 14.391 278.27" fill="#008061" />
    <path class="fil0" d="m182.52 260.84v10.608h-65.403v-10.628h-49.491c-4.8358 0-8.7748-5.0542-8.7748-11.286l-20.709-209.44c0-6.2358 4.8358-11.294 10.803-11.294h199.99c5.9283 0 10.764 5.0584 10.764 11.294l-20.475 209.44c0 6.232-3.9392 11.286-8.7748 11.286l-47.931 0.0198z" fill="#fff" />
    <path class="fil2" d="m74.568 59.459h133.89c-13.182 4.9414-53.313 32.112-63.336 50.381h-70.434l-0.11743-50.381z" fill="#f5821f" />
    <path class="fil3" d="m181.27 203.82c-1.911 18.244-1.9891 40.462-1.9891 63.8h-58.032c0-23.338 0.97512-45.556 2.8857-63.8h57.135z" fill="#ed1b2d" />
    <polygon class="fil1" points="91.494 177.45 91.494 184.52 82.212 184.52 82.212 191.6 91.494 191.6 91.494 199.7 70.278 199.7 70.278 161.99 91.494 161.99 91.494 170.39 82.212 170.39 82.212 177.45" fill="#008061" />
    <polygon class="fil1" points="140.83 177.45 140.83 184.52 131.59 184.52 131.59 191.6 140.83 191.6 140.83 199.7 119.65 199.7 119.65 161.99 140.83 161.99 140.83 170.39 131.59 170.39 131.59 177.45" fill="#008061" />
    <polygon class="fil1" points="195.19 177.45 195.19 184.52 185.91 184.52 185.91 191.6 195.19 191.6 195.19 199.7 173.98 199.7 173.98 161.99 195.19 161.99 195.19 170.39 185.91 170.39 185.91 177.45" fill="#008061" />
    <polygon class="fil1" points="107.41 161.99 107.41 191.6 116.69 191.6 116.69 199.7 95.472 199.7 95.472 161.99" fill="#008061" />
    <polygon class="fil1" points="157.95 187.48 153.42 161.99 143.01 161.99 148.94 199.7 164.27 199.7 171.44 161.99 162.59 161.99" fill="#008061" />
    <polygon class="fil1" points="200.22 161.99 211.69 161.99 211.69 199.7 200.22 199.7" fill="#008061" />
    <path class="fil1" d="m211.69 173.18c0.62443-4.1302 6.4742-3.0224 6.4742-0.66331v27.183h11.505v-31.968c0-6.7782-9.5551-9.5044-17.901-3.5372l-0.0781 8.9856z" fill="#008061" />
    <path class="fil3" d="m186.65 156.68c1.1697-14.434 20.942-38.005 40.091-44.195v-55.684c-52.688 23.572-86.931 59.222-94.34 99.739l54.249 0.14053z" fill="#ed1b2d" />
  </g>
</svg>
